<?xml version="1.0" encoding="UTF-8" standalone="no"?>
<svg
   xmlns:dc="http://purl.org/dc/elements/1.1/"
   xmlns:cc="http://creativecommons.org/ns#"
   xmlns:rdf="http://www.w3.org/1999/02/22-rdf-syntax-ns#"
   xmlns:svg="http://www.w3.org/2000/svg"
   xmlns="http://www.w3.org/2000/svg"
   xmlns:sodipodi="http://sodipodi.sourceforge.net/DTD/sodipodi-0.dtd"
   xmlns:inkscape="http://www.inkscape.org/namespaces/inkscape"
   width="250"
   height="85"
   viewBox="0 0 66.145835 22.489583"
   version="1.1"
   id="svg8"
   inkscape:version="1.0.1 (3bc2e813f5, 2020-09-07)"
   sodipodi:docname="cwm_logo.svg">
  <defs
     id="defs2">
    <inkscape:path-effect
       effect="skeletal"
       id="path-effect1091"
       is_visible="true"
       lpeversion="1"
       pattern="M 14.279711,-28.187743 H 3.3439934 c -1.0935733,0 4.3742887,-9.470609 5.4678591,-9.470609 1.0935705,0 6.5614285,9.470609 5.4678585,9.470609 z"
       copytype="repeated_stretched"
       prop_scale="0.5"
       scale_y_rel="false"
       spacing="0"
       normal_offset="0"
       tang_offset="0"
       prop_units="false"
       vertical_pattern="false"
       hide_knot="false"
       fuse_tolerance="0" />
    <inkscape:path-effect
       effect="skeletal"
       id="path-effect1071"
       is_visible="true"
       lpeversion="1"
       pattern="M 23.393692,20.23097 H 1.9853718 c -2.14083504,0 8.5633302,-18.54015 10.7041602,-18.54015 2.14083,0 12.84499,18.54015 10.70416,18.54015 z"
       copytype="repeated_stretched"
       prop_scale="0.5"
       scale_y_rel="false"
       spacing="0"
       normal_offset="0"
       tang_offset="0"
       prop_units="false"
       vertical_pattern="false"
       hide_knot="false"
       fuse_tolerance="0" />
    <inkscape:path-effect
       effect="skeletal"
       id="path-effect1060"
       is_visible="true"
       lpeversion="1"
       pattern="M 32.875026,-147.28862 H 6.8736463 c -2.60015,0 10.4005597,-22.51786 13.0006897,-22.51786 2.60014,0 15.60083,22.51786 13.00069,22.51786 z"
       copytype="repeated_stretched"
       prop_scale="0.57"
       scale_y_rel="false"
       spacing="0"
       normal_offset="0"
       tang_offset="0"
       prop_units="false"
       vertical_pattern="false"
       hide_knot="false"
       fuse_tolerance="0" />
    <inkscape:path-effect
       effect="skeletal"
       id="path-effect1047"
       is_visible="true"
       lpeversion="1"
       pattern="M 102.10881,-171.33277 H 80.700491 c -2.14084,0 8.56333,-18.54015 10.70416,-18.54015 2.14083,0 12.844989,18.54015 10.704159,18.54015 z"
       copytype="repeated_stretched"
       prop_scale="0.57"
       scale_y_rel="false"
       spacing="0"
       normal_offset="0"
       tang_offset="0"
       prop_units="false"
       vertical_pattern="false"
       hide_knot="false"
       fuse_tolerance="0" />
    <inkscape:path-effect
       effect="skeletal"
       id="path-effect1043"
       is_visible="true"
       lpeversion="1"
       pattern="M 51.78427,-98.353135 H 30.37595 c -2.14084,0 8.56333,-18.540145 10.70416,-18.540145 2.14083,0 12.84499,18.540145 10.70416,18.540145 z"
       copytype="repeated_stretched"
       prop_scale="0.57"
       scale_y_rel="false"
       spacing="0"
       normal_offset="0"
       tang_offset="0"
       prop_units="false"
       vertical_pattern="false"
       hide_knot="false"
       fuse_tolerance="0" />
    <inkscape:path-effect
       effect="skeletal"
       id="path-effect1004"
       is_visible="true"
       lpeversion="1"
       pattern="m -137.27656,-113.75947 h -13.28193 c -1.3282,0 5.31278,-11.50249 6.64097,-11.50249 1.32819,0 7.96915,11.50249 6.64096,11.50249 z"
       copytype="repeated_stretched"
       prop_scale="0.57"
       scale_y_rel="false"
       spacing="0"
       normal_offset="0"
       tang_offset="0"
       prop_units="false"
       vertical_pattern="false"
       hide_knot="false"
       fuse_tolerance="0" />
    <inkscape:path-effect
       effect="skeletal"
       id="path-effect947"
       is_visible="true"
       lpeversion="1"
       pattern="M 0,0 H 0.26458333"
       copytype="single_stretched"
       prop_scale="1"
       scale_y_rel="false"
       spacing="0"
       normal_offset="0"
       tang_offset="0"
       prop_units="false"
       vertical_pattern="false"
       hide_knot="false"
       fuse_tolerance="0" />
    <inkscape:path-effect
       effect="skeletal"
       id="path-effect892"
       is_visible="true"
       lpeversion="1"
       pattern="M 0,0 H 1"
       copytype="single_stretched"
       prop_scale="1"
       scale_y_rel="false"
       spacing="0"
       normal_offset="0"
       tang_offset="0"
       prop_units="false"
       vertical_pattern="false"
       hide_knot="false"
       fuse_tolerance="0" />
    <inkscape:path-effect
       effect="skeletal"
       id="path-effect854"
       is_visible="true"
       lpeversion="1"
       pattern="m -326.86958,184.55201 h -21.40832 c -2.14083,0 8.56333,-18.54015 10.70416,-18.54015 2.14083,0 12.84499,18.54015 10.70416,18.54015 z"
       copytype="repeated_stretched"
       prop_scale="1"
       scale_y_rel="false"
       spacing="1"
       normal_offset="0"
       tang_offset="0"
       prop_units="false"
       vertical_pattern="false"
       hide_knot="false"
       fuse_tolerance="0" />
  </defs>
  <sodipodi:namedview
     id="base"
     pagecolor="#ffffff"
     bordercolor="#666666"
     borderopacity="1.0"
     inkscape:pageopacity="0.0"
     inkscape:pageshadow="2"
     inkscape:zoom="2.136"
     inkscape:cx="183.75468"
     inkscape:cy="85"
     inkscape:document-units="mm"
     inkscape:current-layer="g1215"
     inkscape:document-rotation="0"
     showgrid="false"
     units="px"
     inkscape:window-width="1920"
     inkscape:window-height="1017"
     inkscape:window-x="-8"
     inkscape:window-y="-8"
     inkscape:window-maximized="1" />
  <metadata
     id="metadata5">
    <rdf:RDF>
      <cc:Work
         rdf:about="">
        <dc:format>image/svg+xml</dc:format>
        <dc:type
           rdf:resource="http://purl.org/dc/dcmitype/StillImage" />
        <dc:title></dc:title>
      </cc:Work>
    </rdf:RDF>
  </metadata>
  <g
     inkscape:label="Layer 1"
     inkscape:groupmode="layer"
     id="layer1">
    <g
       id="g1149"
       transform="matrix(0.29232957,0,0,0.29232957,-0.12481303,10.020923)">
      <g
         id="g1215"
         transform="translate(0.82794825,-10.096511)">
        <g
           aria-label="Cyclewith.me"
           id="text12"
           style="font-style:normal;font-variant:normal;font-weight:normal;font-stretch:normal;font-size:27.4724px;line-height:1.25;font-family:'Arial Rounded MT Bold';-inkscape-font-specification:'Arial Rounded MT Bold, ';letter-spacing:0px;word-spacing:0px;stroke-width:0.858511">
          <path
             d="m 42.732343,14.923583 q 0,0.938998 -0.469499,2.038967 -0.456085,1.086555 -1.44874,2.146281 -0.992655,1.046312 -2.535294,1.703611 -1.54264,0.657299 -3.595022,0.657299 -1.556054,0 -2.830408,-0.295114 -1.274355,-0.295114 -2.320667,-0.91217 -1.032898,-0.63047 -1.904824,-1.649953 -0.778027,-0.925584 -1.328012,-2.065796 -0.549984,-1.153626 -0.831684,-2.454809 -0.268285,-1.301183 -0.268285,-2.763338 0,-2.3743232 0.684127,-4.2523194 0.697542,-1.8779961 1.98531,-3.2060077 1.287769,-1.3414258 3.018208,-2.0389672 1.73044,-0.6975414 3.688921,-0.6975414 2.387738,0 4.25232,0.9524123 1.864582,0.9524123 2.857237,2.3609094 0.992655,1.3950829 0.992655,2.6426089 0,0.6841272 -0.482913,1.2072832 -0.482913,0.5231561 -1.16704,0.5231561 -0.764613,0 -1.153627,-0.362185 -0.375599,-0.362185 -0.845098,-1.247526 -0.778027,-1.4621541 -1.837753,-2.1865241 -1.046312,-0.7243699 -2.588952,-0.7243699 -2.454809,0 -3.916963,1.8645819 -1.44874,1.8645819 -1.44874,5.2986319 0,2.293838 0.643884,3.823064 0.643884,1.515811 1.824339,2.267009 1.180455,0.751199 2.763337,0.751199 1.717025,0 2.89748,-0.845099 1.193869,-0.858512 1.797511,-2.508466 0.254871,-0.778027 0.63047,-1.26094 0.375599,-0.496328 1.207283,-0.496328 0.710956,0 1.220698,0.496328 0.509741,0.496327 0.509741,1.234112 z"
             style="fill:#00b800;fill-opacity:1;stroke-width:0.858511"
             id="path41" />
          <path
             d="M 49.439473,21.925825 49.774829,21.107556 45.267638,9.7590933 q -0.415842,-0.9792409 -0.415842,-1.4219114 0,-0.469499 0.241457,-0.8719268 0.241457,-0.4024277 0.657299,-0.6438844 0.429256,-0.2414566 0.885341,-0.2414566 0.791441,0 1.193869,0.5097418 0.402428,0.4963275 0.710955,1.4353256 l 3.098694,9.0143815 2.937723,-8.3839114 q 0.34877,-1.0194836 0.63047,-1.5962967 0.281699,-0.5768131 0.590227,-0.778027 0.321942,-0.2012138 0.898755,-0.2012138 0.415842,0 0.791442,0.2280424 0.389013,0.2146281 0.590227,0.5902273 0.214628,0.3755993 0.214628,0.7914413 -0.05366,0.2548709 -0.174385,0.7243699 -0.120729,0.469499 -0.295114,0.9524123 L 53.047908,22.368496 q -0.617056,1.649954 -1.207283,2.588952 -0.590227,0.938998 -1.569468,1.435325 -0.965827,0.509742 -2.615781,0.509742 -1.609711,0 -2.414566,-0.348771 -0.804856,-0.34877 -0.804856,-1.274354 0,-0.63047 0.3756,-0.979241 0.389013,-0.335356 1.140212,-0.335356 0.295113,0 0.576813,0.08048 0.34877,0.08049 0.603641,0.08049 0.63047,0 0.992655,-0.1878 0.362185,-0.1878 0.643885,-0.657299 0.295114,-0.456084 0.670713,-1.35484 z"
             style="fill:#00b800;fill-opacity:1;stroke-width:0.858511"
             id="path43" />
          <path
             d="m 73.719282,16.935721 q 0,0.684128 -0.415842,1.462154 -0.402428,0.778027 -1.247526,1.488983 -0.831684,0.697542 -2.106039,1.126798 -1.274354,0.429256 -2.870651,0.429256 -3.393807,0 -5.298632,-1.971896 -1.904825,-1.98531 -1.904825,-5.312046 0,-2.253595 0.871927,-3.984035 0.871927,-1.730439 2.521881,-2.6694371 1.649953,-0.9524123 3.943791,-0.9524123 1.421912,0 2.602366,0.415842 1.193869,0.415842 2.012139,1.0731406 0.831684,0.6572987 1.26094,1.4084971 0.442671,0.7377847 0.442671,1.3816687 0,0.657299 -0.496328,1.113383 -0.482913,0.456085 -1.180454,0.456085 -0.456085,0 -0.764613,-0.228042 -0.295114,-0.241457 -0.670713,-0.764613 -0.670713,-1.019484 -1.408497,-1.5292254 -0.72437,-0.5097418 -1.851168,-0.5097418 -1.623125,0 -2.61578,1.2743542 -0.992655,1.260941 -0.992655,3.460879 0,1.032898 0.254871,1.904825 0.254871,0.858512 0.737784,1.475568 0.482913,0.603642 1.167041,0.925584 0.684127,0.308528 1.502396,0.308528 1.09997,0 1.877997,-0.509742 0.791441,-0.509742 1.395082,-1.556054 0.335357,-0.617056 0.72437,-0.965827 0.389014,-0.34877 0.952413,-0.34877 0.670713,0 1.113383,0.509741 0.442671,0.509742 0.442671,1.086555 z"
             style="fill:#00b800;fill-opacity:1;stroke-width:0.858511"
             id="path45" />
          <path
             d="M 76.227748,19.242974 V 3.3604921 q 0,-1.0999691 0.482914,-1.663368 0.496327,-0.5633988 1.328011,-0.5633988 0.831684,0 1.341426,0.5633988 0.509742,0.5499846 0.509742,1.663368 V 19.242974 q 0,1.113383 -0.523156,1.676782 -0.509742,0.549985 -1.328012,0.549985 -0.804855,0 -1.314597,-0.576813 -0.496328,-0.576814 -0.496328,-1.649954 z"
             style="fill:#00b800;fill-opacity:1;stroke-width:0.858511"
             id="path47" />
          <path
             d="m 93.894325,14.923583 h -7.163214 q 0.01341,1.247526 0.496328,2.199938 0.496327,0.952412 1.301183,1.435326 0.81827,0.482913 1.79751,0.482913 0.657299,0 1.193869,-0.147557 0.549985,-0.160971 1.059727,-0.482913 0.509742,-0.335357 0.938998,-0.710956 0.429256,-0.375599 1.113383,-1.019484 0.2817,-0.241456 0.804856,-0.241456 0.563399,0 0.912169,0.308528 0.348771,0.308528 0.348771,0.871927 0,0.496327 -0.389013,1.16704 -0.389014,0.657299 -1.180455,1.274355 -0.778027,0.603641 -1.971896,1.006069 -1.180455,0.402428 -2.723095,0.402428 -3.527949,0 -5.486431,-2.012139 -1.958482,-2.012139 -1.958482,-5.459603 0,-1.623125 0.482914,-3.004794 0.482913,-1.3950828 1.408497,-2.3877379 0.925583,-0.9926551 2.280424,-1.5158112 1.35484,-0.5365703 3.004793,-0.5365703 2.146282,0 3.675507,0.9121695 1.54264,0.8987553 2.307252,2.3340809 0.764613,1.435326 0.764613,2.924308 0,1.381669 -0.791441,1.797511 -0.791441,0.402428 -2.226767,0.402428 z m -7.163214,-2.07921 h 6.640058 q -0.134143,-1.877997 -1.019484,-2.80358 -0.871926,-0.9389984 -2.307252,-0.9389984 -1.368254,0 -2.253595,0.9524124 -0.871927,0.938998 -1.059727,2.790166 z"
             style="fill:#00b800;fill-opacity:1;stroke-width:0.858511"
             id="path49" />
          <path
             d="m 104.3879,8.860338 2.38774,8.182697 2.17311,-7.6058839 q 0.34877,-1.193869 0.50974,-1.6231253 0.17439,-0.4426705 0.63047,-0.831684 0.4695,-0.4024277 1.27436,-0.4024277 0.81827,0 1.27435,0.4024277 0.4695,0.3890135 0.6573,0.8585125 0.1878,0.4560848 0.52316,1.5962968 l 2.17311,7.6058839 2.41456,-8.182697 q 0.24146,-0.8853411 0.38902,-1.2743546 0.14755,-0.4024277 0.49632,-0.6975414 0.34877,-0.3085279 1.00607,-0.3085279 0.6573,0 1.14021,0.4560848 0.48292,0.4560847 0.48292,1.0731406 0,0.5633988 -0.41584,1.7036108 l -2.99138,8.7729247 q -0.38902,1.113384 -0.60365,1.609711 -0.21462,0.496328 -0.68412,0.885341 -0.45609,0.389014 -1.26094,0.389014 -0.83169,0 -1.3146,-0.415842 -0.4695,-0.415842 -0.69754,-1.019484 -0.22804,-0.603642 -0.49633,-1.569468 l -2.09262,-7.136386 -2.02556,7.136386 q -0.40242,1.488982 -0.87192,2.253595 -0.4695,0.751199 -1.64996,0.751199 -0.60364,0 -1.03289,-0.241457 -0.41585,-0.228042 -0.69755,-0.657299 -0.2817,-0.44267 -0.49632,-1.032898 -0.21463,-0.603641 -0.33536,-0.952412 l -2.96455,-8.7729247 q -0.44267,-1.2341118 -0.44267,-1.7036108 0,-0.5902274 0.4695,-1.0597264 0.4695,-0.469499 1.15362,-0.469499 0.91217,0 1.23412,0.523156 0.32194,0.5097419 0.68412,1.7572679 z"
             style="fill:#e6e6e6;stroke-width:0.858511"
             id="path51" />
          <path
             d="M 128.10432,8.6591241 V 19.242974 q 0,1.099969 -0.52316,1.663368 -0.52315,0.563399 -1.32801,0.563399 -0.80485,0 -1.3146,-0.576813 -0.49632,-0.576814 -0.49632,-1.649954 V 8.7664382 q 0,-1.086555 0.49632,-1.6365395 0.50975,-0.5499846 1.3146,-0.5499846 0.80486,0 1.32801,0.5499846 0.52316,0.5499845 0.52316,1.5292254 z m -1.81093,-3.7828208 q -0.76461,0 -1.31459,-0.469499 -0.53657,-0.4694991 -0.53657,-1.3280116 0,-0.778027 0.54998,-1.2743545 0.5634,-0.5097418 1.30118,-0.5097418 0.71096,0 1.26094,0.4560847 0.54999,0.4560848 0.54999,1.3280116 0,0.8450983 -0.53657,1.3280116 -0.53657,0.469499 -1.27436,0.469499 z"
             style="fill:#e6e6e6;stroke-width:0.858511"
             id="path53" />
          <path
             d="m 132.08835,6.9018563 h 0.40243 V 4.7019179 q 0,-0.885341 0.0402,-1.3816686 0.0537,-0.5097418 0.26828,-0.8719267 0.21463,-0.3755993 0.61706,-0.6036416 0.40243,-0.2414567 0.89875,-0.2414567 0.69755,0 1.26095,0.5231561 0.37559,0.3487707 0.46949,0.8585125 0.10732,0.4963275 0.10732,1.4219114 v 2.495052 h 1.34142 q 0.77803,0 1.18046,0.3755992 0.41584,0.362185 0.41584,0.9389981 0,0.7377842 -0.59023,1.0328978 -0.57681,0.2951137 -1.66336,0.2951137 h -0.68413 v 6.7339579 q 0,0.858512 0.0537,1.328011 0.0671,0.456085 0.32194,0.751199 0.26828,0.281699 0.85851,0.281699 0.32194,0 0.87193,-0.107314 0.54998,-0.120728 0.85851,-0.120728 0.44267,0 0.79144,0.362185 0.36219,0.34877 0.36219,0.871927 0,0.885341 -0.96583,1.35484 -0.96583,0.469499 -2.77675,0.469499 -1.71703,0 -2.60237,-0.576813 -0.88534,-0.576814 -1.16704,-1.596297 -0.26828,-1.019484 -0.26828,-2.723095 V 9.5444651 h -0.48292 q -0.79144,0 -1.20728,-0.3755992 -0.41584,-0.3755992 -0.41584,-0.9524123 0,-0.5768131 0.42925,-0.9389981 0.44267,-0.3755992 1.27436,-0.3755992 z"
             style="fill:#e6e6e6;stroke-width:0.858511"
             id="path55" />
          <path
             d="m 145.19408,3.3604921 v 5.4327746 q 0.69754,-0.8048555 1.35484,-1.2743546 0.67072,-0.469499 1.47557,-0.6975414 0.80486,-0.2414566 1.73044,-0.2414566 1.39508,0 2.46822,0.5902273 1.08656,0.5902274 1.70361,1.7170251 0.38902,0.6572986 0.52316,1.4755685 0.13414,0.804855 0.13414,1.864582 v 7.015657 q 0,1.099969 -0.50974,1.663368 -0.49633,0.563399 -1.32801,0.563399 -1.81092,0 -1.81092,-2.226767 v -6.183973 q 0,-1.757268 -0.52316,-2.696266 -0.52316,-0.9524125 -1.98531,-0.9524125 -0.97924,0 -1.77068,0.5633989 -0.77803,0.5499846 -1.16704,1.5158116 -0.29512,0.818269 -0.29512,2.910894 v 4.842547 q 0,1.086555 -0.49632,1.663368 -0.48292,0.563399 -1.35484,0.563399 -1.81093,0 -1.81093,-2.226767 V 3.3604921 q 0,-1.1133834 0.4695,-1.663368 0.48291,-0.5633988 1.34143,-0.5633988 0.87192,0 1.35484,0.5633988 0.49632,0.5633989 0.49632,1.663368 z"
             style="fill:#e6e6e6;stroke-width:0.858511"
             id="path57" />
          <path
             d="m 160.63389,21.469741 q -0.83168,0 -1.43532,-0.536571 -0.60364,-0.53657 -0.60364,-1.502397 0,-0.818269 0.57681,-1.408497 0.57681,-0.590227 1.42191,-0.590227 0.8451,0 1.43533,0.590227 0.60364,0.576813 0.60364,1.408497 0,0.952413 -0.60364,1.502397 -0.59023,0.536571 -1.39509,0.536571 z"
             style="fill:#e6e6e6;stroke-width:0.858511"
             id="path59" />
          <path
             d="m 178.9846,14.293113 v 4.869375 q 0,1.153626 -0.52316,1.73044 -0.52315,0.576813 -1.38166,0.576813 -0.83169,0 -1.35484,-0.576813 -0.50975,-0.576814 -0.50975,-1.73044 v -5.835202 q 0,-1.381669 -0.0939,-2.146281 -0.0939,-0.764613 -0.50974,-1.2475264 -0.41584,-0.4963275 -1.31459,-0.4963275 -1.79752,0 -2.37433,1.2341119 -0.5634,1.234112 -0.5634,3.541364 v 4.949861 q 0,1.140212 -0.52315,1.73044 -0.50975,0.576813 -1.35484,0.576813 -0.83169,0 -1.36826,-0.576813 -0.52315,-0.590228 -0.52315,-1.73044 V 8.6859526 q 0,-1.0328979 0.4695,-1.5694682 0.48291,-0.5365703 1.26094,-0.5365703 0.75119,0 1.24752,0.5097418 0.50974,0.4963275 0.50974,1.3816686 v 0.3487707 q 0.95242,-1.140212 2.03897,-1.6767823 1.08656,-0.5365703 2.41457,-0.5365703 1.38167,0 2.37432,0.5499846 0.99266,0.5499846 1.63654,1.663368 0.92558,-1.1267977 1.98531,-1.663368 1.05973,-0.5499846 2.3475,-0.5499846 1.50239,0 2.58895,0.5902274 1.08655,0.5902273 1.62312,1.6901965 0.4695,0.9926551 0.4695,3.1255225 v 7.149799 q 0,1.153626 -0.52315,1.73044 -0.52316,0.576813 -1.38167,0.576813 -0.83169,0 -1.36826,-0.576813 -0.52315,-0.590228 -0.52315,-1.73044 v -6.157144 q 0,-1.180455 -0.10732,-1.891411 -0.0939,-0.710955 -0.53657,-1.1938686 -0.44267,-0.4829133 -1.34142,-0.4829133 -0.72437,0 -1.38167,0.4292562 -0.64389,0.4292567 -1.00607,1.1536267 -0.40243,0.925583 -0.40243,3.273079 z"
             style="fill:#b800b8;fill-opacity:1;stroke-width:0.858511"
             id="path61" />
          <path
             d="m 201.33274,14.923583 h -7.16321 q 0.0134,1.247526 0.49633,2.199938 0.49633,0.952412 1.30118,1.435326 0.81827,0.482913 1.79751,0.482913 0.6573,0 1.19387,-0.147557 0.54999,-0.160971 1.05973,-0.482913 0.50974,-0.335357 0.939,-0.710956 0.42925,-0.375599 1.11338,-1.019484 0.2817,-0.241456 0.80485,-0.241456 0.5634,0 0.91217,0.308528 0.34877,0.308528 0.34877,0.871927 0,0.496327 -0.38901,1.16704 -0.38901,0.657299 -1.18045,1.274355 -0.77803,0.603641 -1.9719,1.006069 -1.18045,0.402428 -2.72309,0.402428 -3.52795,0 -5.48644,-2.012139 -1.95848,-2.012139 -1.95848,-5.459603 0,-1.623125 0.48292,-3.004794 0.48291,-1.3950828 1.40849,-2.3877379 0.92559,-0.9926551 2.28043,-1.5158112 1.35484,-0.5365703 3.00479,-0.5365703 2.14628,0 3.67551,0.9121695 1.54264,0.8987553 2.30725,2.3340809 0.76461,1.435326 0.76461,2.924308 0,1.381669 -0.79144,1.797511 -0.79144,0.402428 -2.22677,0.402428 z m -7.16321,-2.07921 h 6.64006 q -0.13414,-1.877997 -1.01949,-2.80358 -0.87192,-0.9389984 -2.30725,-0.9389984 -1.36825,0 -2.25359,0.9524124 -0.87193,0.938998 -1.05973,2.790166 z"
             style="fill:#b800b8;fill-opacity:1;stroke-width:0.858511"
             id="path63" />
        </g>
        <path
           id="path890"
           style="fill:#00b800;fill-opacity:1;stroke:#00b800;stroke-width:3.72245;stroke-linecap:round;stroke-miterlimit:10;stroke-dasharray:none;stroke-opacity:1"
           d="m 50.107097,38.18998 c 3.795068,-1.386812 7.26018,-3.605301 9.926276,-6.544708 0.391727,-0.431885 0.884298,1.515786 0.728541,3.89278 -0.157423,2.402397 -0.989406,4.962626 -1.6889,5.421845 -0.703889,0.462104 -3.367997,0.195025 -5.642968,-0.601816 -2.250003,-0.788095 -3.876822,-1.965702 -3.322949,-2.168101 z m -12.220182,1.52213 c 3.97828,0.436949 8.107999,-0.07145 11.920097,-1.414446 0.557785,-0.196506 0.05105,1.745397 -1.179421,3.790474 -1.243591,2.066893 -3.118339,3.98679 -3.9468,4.084378 -0.826741,0.09739 -3.104507,-1.332727 -4.787879,-3.051425 -1.666408,-1.701377 -2.589068,-3.473022 -2.005997,-3.408981 z M 26.557702,35.397231 c 1.628893,1.160248 3.387589,2.117941 5.242172,2.823289 1.844469,0.731345 3.788513,1.211782 5.7735,1.455154 0.576735,0.07071 -0.719422,1.585989 -2.73725,2.851331 -2.038678,1.278417 -4.60556,2.112467 -5.409977,1.805147 0,0 -1e-6,0 -1e-6,0 0,0 -1.8e-5,-2.7e-5 -1.8e-5,-2.7e-5 -0.800958,-0.31612 -2.131977,-2.664107 -2.773317,-4.98344 -0.634783,-2.29562 -0.568379,-4.288561 -0.09511,-3.951454 z m -8.096397,-9.274113 c 1.906252,3.563976 4.610183,6.726539 7.84046,9.089366 0.473444,0.346306 -1.403146,1.030733 -3.781079,1.161304 -2.402141,0.131899 -5.048065,-0.350332 -5.592338,-0.980215 -0.545405,-0.631193 -0.632796,-3.313174 -0.155277,-5.677603 0.472479,-2.339474 1.409314,-4.114328 1.688234,-3.592852 z M 15.406024,14.31219 c -0.01685,3.968362 1.042439,7.944112 2.906548,11.528925 0.272061,0.523191 -1.723129,0.294023 -3.915223,-0.643177 -2.21642,-0.9476 -4.362387,-2.548741 -4.56984,-3.364806 -0.181386,-0.713526 0.707502,-2.83314 2.015913,-4.621275 1.312412,-1.793603 2.882829,-3.050313 3.40888,-3.056836 0,0 10e-7,0 10e-7,0 0,0 0,0 0,0 0,0 0,0 0,0 0,0 1e-6,0 1e-6,0 0,0 0,0 0,0 0,0 0,0 0,0 0,0 0,0 0,0 0,0 10e-7,0 10e-7,0 0,0 0,0 0,0 0,0 0,0 0,0 0,0 1e-6,0 1e-6,0 0,0 0,0 0,0 0,0 0,0 0,0 0,0 10e-7,0 10e-7,0 0,0 0,0 0,0 0,0 0,0 0,0 0,0 0,0 0,0 0,0 10e-7,0 10e-7,0 0,0 0,0 0,0 0.0033,-4.1e-5 0.0065,-2.7e-5 0.0097,4.2e-5 0,0 0,0 0,0 0,0 0,0 0,0 0.09391,0.002 0.144512,0.0518 0.144064,0.157127 z M 18.414384,2.4959773 C 16.51908,6.064396 15.425149,10.030756 15.407389,13.999114 15.40478,14.582182 13.736415,13.462982 12.263208,11.591079 10.774256,9.6991712 9.6814653,7.2389321 9.8946886,6.4297908 10.109251,5.6155661 12.269101,4.0332094 14.4937,3.1049802 16.693883,2.1869387 18.690995,1.9751828 18.414384,2.4959773 Z m 8.070624,-9.3013309 c -3.250763,2.3345612 -5.982174,5.4734214 -7.919438,9.020636 -0.283459,0.5190274 -1.204778,-1.26393236 -1.656832,-3.607441 -0.456877,-2.3685076 -0.346093,-5.0496285 0.204797,-5.6760404 0.549746,-0.6251111 3.199772,-1.0842424 5.600668,-0.9313939 2.376701,0.1513082 4.247248,0.8520779 3.770805,1.1942393 z m 11.31011,-4.3647064 c -1.987063,0.226053 -3.935251,0.689524 -5.786052,1.4047702 -1.860636,0.6891413 -3.627592,1.6314481 -5.266519,2.7774287 -0.476185,0.3329606 -0.525214,-1.6604022 0.129536,-3.9503519 0.661518,-2.313621 2.012908,-4.64987 2.816632,-4.959173 0,0 1e-6,0 1e-6,0 0,0 7.7e-5,-2.9e-5 7.7e-5,-2.9e-5 0.807004,-0.300329 3.36654,0.556076 5.394004,1.852228 2.006735,1.2829 3.289652,2.809448 2.712321,2.875127 z m 12.221154,1.484658 c -3.800239,-1.37619 -7.925367,-1.920591 -11.907308,-1.518358 -0.583611,0.05895 0.354467,-1.704577 2.035656,-3.391356 1.698303,-1.70395 3.98846,-3.11414 4.814321,-3.009547 0.827578,0.104811 2.685504,2.040986 3.911017,4.118645 1.212578,2.05573 1.70236,4.0019782 1.146314,3.800616 z m 10.167947,6.7413339 c -2.640355,-2.9625501 -6.085984,-5.2111775 -9.868812,-6.6310368 -0.552091,-0.2072235 1.084938,-1.3705961 3.341733,-2.1390351 2.281838,-0.776967 4.948179,-1.020795 5.648011,-0.552569 0.695461,0.465302 1.505078,3.0326878 1.641537,5.4363641 0.135016,2.3782589 -0.374526,4.3215593 -0.762469,3.8862768 z"
           inkscape:path-effect="#path-effect1004"
           inkscape:original-d="M 62.566561,33.731075 A 28.97423,28.97423 0 0 1 30.61301,41.276336 28.97423,28.97423 0 0 1 12.129069,14.141405 28.97423,28.97423 0 0 1 30.848891,-12.831338 28.97423,28.97423 0 0 1 62.735442,-5.007767" />
        <path
           id="path1088"
           style="fill:#b800b8;fill-opacity:1;stroke:#b800b8;stroke-width:3.72232;stroke-linecap:round;stroke-miterlimit:10;stroke-dasharray:none;stroke-opacity:1"
           d="m 198.02923,0.07660652 c -3.64155,-0.08716929 -7.30801,1.02858298 -9.91038,3.38279148 -0.36791,0.3328269 -0.50269,-1.2141179 0.18605,-3.09306233 0.69773,-1.90346827 2.1188,-3.70239277 2.88819,-3.96256357 0.77907,-0.2634484 2.96488,0.3200672 4.70448,1.3899026 1.71319,1.0535921 2.641,2.29512424 2.13166,2.28293182 z m 9.95599,4.03103968 c -2.44337,-2.5188531 -6.02929,-3.87125379 -9.66877,-4.02166742 -0.50906,-0.0210385 0.49772,-1.19944408 2.27595,-2.13911008 1.80564,-0.9541528 4.02484,-1.3939308 4.78509,-1.0802536 0.75079,0.3097748 2.05155,2.1975135 2.62371,4.1424184 0.56479,1.919847 0.32945,3.4547153 -0.016,3.0986127 z m 4.02515,9.9434698 c -0.079,-3.641729 -1.36084,-7.2534828 -3.83129,-9.7457732 -0.0662,-0.066837 -0.0707,-0.1238471 -0.0215,-0.1727689 0,0 0,-2e-7 0,-2e-7 0,0 0,-1e-7 0,-1e-7 0,-10e-8 0,-10e-8 0,-2e-7 0,0 0,-1e-7 0,-1e-7 0,0 0,-10e-8 0,-10e-8 0,0 0,-1e-7 0,-1e-7 0,-1e-7 0,-1e-7 0,-1e-7 0,0 0,-10e-8 0,-10e-8 0,0 0,-2e-7 0,-2e-7 0,0 0,0 0,0 0,0 0,-1e-7 0,-1e-7 0,0 0,-2e-7 0,-2e-7 0,0 0,-2e-7 0,-2e-7 0,0 0,0 0,0 0,-1e-7 0,-1e-7 0,-1e-7 0,0 0,-2e-7 0,-2e-7 0,0 0,-1e-7 0,-1e-7 0,0 0,-1e-7 0,-1e-7 0,0 0,-10e-8 0,-10e-8 0,0 0,-2e-7 0,-2e-7 0,0 0,0 0,-10e-8 0,0 0,0 0,0 0,0 0,-2e-7 0,-2e-7 0,0 0,-10e-8 0,-10e-8 0,0 0,-1e-7 0,-1e-7 0,0 0,-1e-7 0,-1e-7 0,0 0,-2e-7 0,-2e-7 5.7e-4,-5.62e-4 0.001,-0.00113 0.002,-0.00169 0,0 0,-10e-8 0,-10e-8 0,-1e-7 0,-1e-7 0,-2e-7 0,0 0,-2e-7 0,-2e-7 0.27696,-0.2676944 1.87719,-0.2642655 3.62595,0.3950873 1.75482,0.6616386 3.32449,1.8671163 3.58236,2.5286059 0.29871,0.7662523 -0.1845,2.976402 -1.17388,4.762985 -0.97436,1.759457 -2.17228,2.742933 -2.18333,2.233562 z m -3.57275,10.129491 c 2.40479,-2.55571 3.59223,-6.199586 3.57649,-9.842138 -0.002,-0.509487 1.22089,0.442494 2.24069,2.176012 1.03551,1.760243 1.57605,3.957076 1.29738,4.730839 -0.24064,0.668142 -1.77893,1.914311 -3.5163,2.621315 -1.73125,0.704511 -3.33103,0.749265 -3.61381,0.488629 0,0 0,0 0,0 0,0 0,0 0,0 0,0 0,-10e-7 0,-10e-7 0,0 0,0 0,0 0,0 0,0 0,0 0,0 0,0 0,0 0,0 0,0 0,0 0,0 0,0 0,0 0,0 0,0 0,0 0,0 0,0 0,0 0,0 0,0 0,0 0,0 0,-1e-6 0,-1e-6 0,0 0,0 0,0 0,0 0,0 0,0 0,0 0,0 0,0 0,0 0,0 0,0 0,0 0,0 0,0 0,0 0,0 0,0 0,0 0,0 0,0 0,0 0,-1e-6 0,-1e-6 0,0 0,0 0,0 0,0 0,0 0,0 0,0 0,0 0,0 0,0 0,0 0,0 0,0 0,0 0,0 0,0 0,0 0,0 0,0 0,0 0,0 -4e-4,-3.72e-4 -8e-4,-7.43e-4 -0.001,-0.0011 0,0 0,0 0,0 0,0 0,0 0,0 0,0 0,0 0,0 0,0 0,0 0,0 0,0 0,0 0,0 -0.0507,-0.04768 -0.0479,-0.104874 0.0167,-0.173541 z m -9.74953,4.474486 c 3.63434,-0.245034 7.18387,-1.690255 9.56089,-4.271814 0.33605,-0.364968 0.61123,1.163258 0.0966,3.097148 -0.52138,1.95913 -1.7726,3.880066 -2.51508,4.209266 -0.75183,0.333347 -2.98172,-0.04856 -4.81157,-0.955417 -1.80207,-0.893092 -2.83915,-2.04491 -2.33082,-2.079183 z m -10.2819,-3.107015 c 2.66273,2.285719 6.35697,3.305721 9.99502,3.123856 0.50885,-0.02544 -0.38635,1.239809 -2.07155,2.337608 -1.71118,1.114725 -3.88107,1.754901 -4.66674,1.511807 -0.7759,-0.240069 -2.24327,-2.00142 -2.99028,-3.886094 -0.73739,-1.860392 -0.6429,-3.41032 -0.26645,-3.087177 z"
           inkscape:path-effect="#path-effect1091"
           inkscape:original-d="m 186.43789,1.7885401 a 16.898014,16.898014 0 0 1 23.33364,0.7613892 16.898014,16.898014 0 0 1 0.30367,23.3440747 16.898014,16.898014 0 0 1 -23.30593,1.368099" />
      </g>
    </g>
  </g>
</svg>
