<?xml version="1.0" encoding="UTF-8" standalone="no"?>
<svg
   xmlns:dc="http://purl.org/dc/elements/1.1/"
   xmlns:cc="http://creativecommons.org/ns#"
   xmlns:rdf="http://www.w3.org/1999/02/22-rdf-syntax-ns#"
   xmlns:svg="http://www.w3.org/2000/svg"
   xmlns="http://www.w3.org/2000/svg"
   xmlns:sodipodi="http://sodipodi.sourceforge.net/DTD/sodipodi-0.dtd"
   xmlns:inkscape="http://www.inkscape.org/namespaces/inkscape"
   width="500"
   height="170"
   viewBox="0 0 132.29167 44.979166"
   version="1.1"
   id="svg8"
   inkscape:version="1.0.1 (3bc2e813f5, 2020-09-07)"
   sodipodi:docname="cwm_logo.svg">
  <defs
     id="defs2">
    <inkscape:path-effect
       effect="skeletal"
       id="path-effect1091"
       is_visible="true"
       lpeversion="1"
       pattern="M 21.149758,-35.561765 H -1.5892307 c -2.2739021,0 9.0955993,-19.692542 11.3694955,-19.692542 2.2738962,0 13.6433902,19.692542 11.3694932,19.692542 z"
       copytype="repeated_stretched"
       prop_scale="0.5"
       scale_y_rel="false"
       spacing="0"
       normal_offset="0"
       tang_offset="0"
       prop_units="false"
       vertical_pattern="false"
       hide_knot="false"
       fuse_tolerance="0" />
    <inkscape:path-effect
       effect="skeletal"
       id="path-effect1071"
       is_visible="true"
       lpeversion="1"
       pattern="M 23.393692,20.23097 H 1.9853718 c -2.14083504,0 8.5633302,-18.54015 10.7041602,-18.54015 2.14083,0 12.84499,18.54015 10.70416,18.54015 z"
       copytype="repeated_stretched"
       prop_scale="0.5"
       scale_y_rel="false"
       spacing="0"
       normal_offset="0"
       tang_offset="0"
       prop_units="false"
       vertical_pattern="false"
       hide_knot="false"
       fuse_tolerance="0" />
    <inkscape:path-effect
       effect="skeletal"
       id="path-effect1060"
       is_visible="true"
       lpeversion="1"
       pattern="M 32.875026,-147.28862 H 6.8736463 c -2.60015,0 10.4005597,-22.51786 13.0006897,-22.51786 2.60014,0 15.60083,22.51786 13.00069,22.51786 z"
       copytype="repeated_stretched"
       prop_scale="0.57"
       scale_y_rel="false"
       spacing="0"
       normal_offset="0"
       tang_offset="0"
       prop_units="false"
       vertical_pattern="false"
       hide_knot="false"
       fuse_tolerance="0" />
    <inkscape:path-effect
       effect="skeletal"
       id="path-effect1047"
       is_visible="true"
       lpeversion="1"
       pattern="M 102.10881,-171.33277 H 80.700491 c -2.14084,0 8.56333,-18.54015 10.70416,-18.54015 2.14083,0 12.844989,18.54015 10.704159,18.54015 z"
       copytype="repeated_stretched"
       prop_scale="0.57"
       scale_y_rel="false"
       spacing="0"
       normal_offset="0"
       tang_offset="0"
       prop_units="false"
       vertical_pattern="false"
       hide_knot="false"
       fuse_tolerance="0" />
    <inkscape:path-effect
       effect="skeletal"
       id="path-effect1043"
       is_visible="true"
       lpeversion="1"
       pattern="M 51.78427,-98.353135 H 30.37595 c -2.14084,0 8.56333,-18.540145 10.70416,-18.540145 2.14083,0 12.84499,18.540145 10.70416,18.540145 z"
       copytype="repeated_stretched"
       prop_scale="0.57"
       scale_y_rel="false"
       spacing="0"
       normal_offset="0"
       tang_offset="0"
       prop_units="false"
       vertical_pattern="false"
       hide_knot="false"
       fuse_tolerance="0" />
    <inkscape:path-effect
       effect="skeletal"
       id="path-effect1004"
       is_visible="true"
       lpeversion="1"
       pattern="m -293.98607,-213.4938 h -27.61754 c -2.76177,0 11.04702,-23.9175 13.80877,-23.9175 2.76176,0 16.57052,23.9175 13.80877,23.9175 z"
       copytype="repeated_stretched"
       prop_scale="0.57"
       scale_y_rel="false"
       spacing="0"
       normal_offset="0"
       tang_offset="0"
       prop_units="false"
       vertical_pattern="false"
       hide_knot="false"
       fuse_tolerance="0" />
    <inkscape:path-effect
       effect="skeletal"
       id="path-effect947"
       is_visible="true"
       lpeversion="1"
       pattern="M 0,0 H 0.26458333"
       copytype="single_stretched"
       prop_scale="1"
       scale_y_rel="false"
       spacing="0"
       normal_offset="0"
       tang_offset="0"
       prop_units="false"
       vertical_pattern="false"
       hide_knot="false"
       fuse_tolerance="0" />
    <inkscape:path-effect
       effect="skeletal"
       id="path-effect892"
       is_visible="true"
       lpeversion="1"
       pattern="M 0,0 H 1"
       copytype="single_stretched"
       prop_scale="1"
       scale_y_rel="false"
       spacing="0"
       normal_offset="0"
       tang_offset="0"
       prop_units="false"
       vertical_pattern="false"
       hide_knot="false"
       fuse_tolerance="0" />
    <inkscape:path-effect
       effect="skeletal"
       id="path-effect854"
       is_visible="true"
       lpeversion="1"
       pattern="m -326.86958,184.55201 h -21.40832 c -2.14083,0 8.56333,-18.54015 10.70416,-18.54015 2.14083,0 12.84499,18.54015 10.70416,18.54015 z"
       copytype="repeated_stretched"
       prop_scale="1"
       scale_y_rel="false"
       spacing="1"
       normal_offset="0"
       tang_offset="0"
       prop_units="false"
       vertical_pattern="false"
       hide_knot="false"
       fuse_tolerance="0" />
  </defs>
  <sodipodi:namedview
     id="base"
     pagecolor="#ffffff"
     bordercolor="#666666"
     borderopacity="1.0"
     inkscape:pageopacity="0.0"
     inkscape:pageshadow="2"
     inkscape:zoom="3.442"
     inkscape:cx="208.89018"
     inkscape:cy="100"
     inkscape:document-units="mm"
     inkscape:current-layer="g1149"
     inkscape:document-rotation="0"
     showgrid="false"
     units="px"
     inkscape:window-width="1920"
     inkscape:window-height="1017"
     inkscape:window-x="-8"
     inkscape:window-y="-8"
     inkscape:window-maximized="1" />
  <metadata
     id="metadata5">
    <rdf:RDF>
      <cc:Work
         rdf:about="">
        <dc:format>image/svg+xml</dc:format>
        <dc:type
           rdf:resource="http://purl.org/dc/dcmitype/StillImage" />
        <dc:title></dc:title>
      </cc:Work>
    </rdf:RDF>
  </metadata>
  <g
     inkscape:label="Layer 1"
     inkscape:groupmode="layer"
     id="layer1">
    <g
       id="g1149"
       transform="matrix(0.29232957,0,0,0.29232957,-0.12481303,10.020923)">
      <g
         id="g1215"
         transform="translate(0.82794825,-10.096511)">
        <text
           xml:space="preserve"
           style="font-style:normal;font-variant:normal;font-weight:normal;font-stretch:normal;font-size:57.1242px;line-height:1.25;font-family:'Arial Rounded MT Bold';-inkscape-font-specification:'Arial Rounded MT Bold, ';letter-spacing:0px;word-spacing:0px;stroke-width:1.78513"
           x="41.011421"
           y="66.995323"
           id="text12"><tspan
             sodipodi:role="line"
             id="tspan10"
             x="41.011421"
             y="66.995323"
             style="font-style:normal;font-variant:normal;font-weight:normal;font-stretch:normal;font-family:'Arial Rounded MT Bold';-inkscape-font-specification:'Arial Rounded MT Bold, ';stroke-width:1.78513"
             dx="0 0 0 0 0 4.3867068"><tspan
   style="fill:#008000"
   id="tspan1205">Cycle</tspan>with.<tspan
   style="fill:#800080"
   id="tspan1207">me</tspan></tspan></text>
        <path
           id="path890"
           style="fill:#008000;fill-opacity:1;stroke:#008000;stroke-width:7.74022;stroke-linecap:round;stroke-miterlimit:10;stroke-dasharray:none"
           d="m 95.646799,102.45957 c 7.891211,-2.883644 15.096321,-7.49662 20.640021,-13.608622 0.81453,-0.898032 1.83875,3.151821 1.51488,8.094378 -0.32733,4.995384 -2.05729,10.318944 -3.51177,11.273814 -1.46363,0.96087 -7.0032,0.40553 -11.73362,-1.25137 -4.678502,-1.63871 -8.061197,-4.08735 -6.909511,-4.5082 z m -25.409815,3.16501 c 8.272164,0.90856 16.859221,-0.14857 24.785838,-2.9411 1.15982,-0.4086 0.106143,3.62926 -2.4524,7.88165 -2.585836,4.29776 -6.484054,8.28986 -8.206702,8.49278 -1.719076,0.2025 -6.45531,-2.77118 -9.955602,-6.34492 -3.465017,-3.53773 -5.383532,-7.22157 -4.171134,-7.08841 z M 46.679789,96.652522 c 3.387007,2.412539 7.043918,4.403898 10.900209,5.870548 3.835265,1.52071 7.87758,2.5197 12.00503,3.02575 1.199228,0.14703 -1.495926,3.29781 -5.691671,5.92889 -4.239096,2.65825 -9.576512,4.39252 -11.249126,3.75348 0,0 -10e-7,0 -10e-7,0 0,0 -2.7e-5,-4e-5 -2.7e-5,-4e-5 -1.665456,-0.65733 -4.433091,-5.53958 -5.766651,-10.36224 -1.319925,-4.77336 -1.181848,-8.917345 -0.197763,-8.216388 z M 29.844688,77.368566 c 3.963732,7.410688 9.586103,13.986706 16.302921,18.899805 0.984448,0.720086 -2.917602,2.14324 -7.862113,2.414743 C 33.29065,98.957381 27.788897,97.954666 26.657171,96.64493 25.523087,95.332466 25.34137,89.755734 26.334289,84.839299 c 0.98244,-4.864543 2.930431,-8.555056 3.510399,-7.470733 z M 23.491739,52.809729 c -0.03504,8.25154 2.167582,16.518443 6.043685,23.972459 0.565704,1.087888 -3.582958,0.611377 -8.141049,-1.337369 -4.608673,-1.970371 -9.070852,-5.299669 -9.502216,-6.996542 -0.377233,-1.483931 1.471671,-5.892265 4.192881,-9.610724 2.729417,-3.729674 5.995384,-6.342636 7.087932,-6.354642 0,0 0,0 0,0 0,0 10e-7,0 10e-7,0 0,0 0,0 0,0 0,0 1e-6,0 1e-6,0 0,0 0,0 0,0 0,0 1e-6,0 1e-6,0 0.0062,-6.8e-5 0.01233,-4.2e-5 0.01837,8e-5 0,0 1e-6,0 1e-6,0 0,0 0,0 0,0 0,0 1e-6,0 1e-6,0 0,0 0,0 0,0 0.195805,0.0039 0.301326,0.107427 0.300394,0.326738 z m 6.255371,-24.56983 c -3.940965,7.419928 -6.215607,15.667308 -6.252533,23.91884 -0.0054,1.212392 -3.47451,-1.114792 -6.5378,-5.007095 -3.096027,-3.933901 -5.368307,-9.049551 -4.924945,-10.732025 0.446148,-1.693051 4.937193,-4.9833 9.562873,-6.913399 4.574912,-1.908916 8.727571,-2.349227 8.152405,-1.266321 z M 46.528608,8.8993385 C 39.769196,13.753669 34.089688,20.280403 30.061476,27.65624 29.472069,28.735471 27.556339,25.028109 26.616363,20.155179 25.666361,15.230268 25.896712,9.6553291 27.042196,8.3528094 28.185305,7.0529899 33.69559,6.0982997 38.687851,6.4161203 c 4.941952,0.3146178 8.831441,1.7717501 7.840757,2.4832182 z M 70.046076,-0.17634627 C 65.914321,0.29369416 61.8634,1.2574044 58.014978,2.7446354 c -3.868887,1.4329562 -7.542981,3.392329 -10.95086,5.7752085 -0.990152,0.69234 -1.092099,-3.4525612 0.269356,-8.21415058 1.375524,-4.81080112 4.185538,-9.66865952 5.856722,-10.31172432 0,0 10e-7,0 10e-7,0 0,0 1.24e-4,-4.6e-5 1.24e-4,-4.6e-5 1.678034,-0.624487 7.000164,1.1562599 11.215937,3.8513891 4.172671,2.6675742 6.840282,5.84177337 5.639818,5.97834163 z M 95.457914,2.9107392 C 87.555953,0.04918784 78.978443,-1.0827993 70.698668,-0.24642015 c -1.213522,0.12258359 0.73705,-3.54438135 4.232793,-7.05175675 3.531331,-3.5430801 8.293324,-6.4753391 10.010564,-6.2578561 1.720817,0.217936 5.584066,4.2438869 8.132318,8.5640295 2.521355,4.27454472 3.539776,8.3214413 2.383571,7.9027427 z M 116.60046,16.928198 C 111.11028,10.768077 103.94567,6.0924384 96.079915,3.1400836 c -1.14798,-0.4308861 2.255943,-2.84992743 6.948565,-4.4477725 4.7447,-1.6155766 10.2889,-2.1225826 11.74408,-1.1489855 1.44611,0.9675212 3.12957,6.3059696 3.41332,11.3040118 0.28075,4.9451906 -0.77876,8.9859576 -1.58542,8.0808606 z"
           inkscape:path-effect="#path-effect1004"
           inkscape:original-d="M 121.55416,93.188026 A 60.247049,60.247049 0 0 1 55.112114,108.87713 60.247049,60.247049 0 0 1 16.67786,52.454596 60.247049,60.247049 0 0 1 55.602587,-3.6306978 60.247049,60.247049 0 0 1 121.90532,12.637106" />
        <path
           id="path1088"
           style="fill:#800080;fill-opacity:1;stroke:#800080;stroke-width:7.73994;stroke-linecap:round;stroke-miterlimit:10;stroke-dasharray:none"
           d="m 403.22605,23.209215 c -7.57198,-0.181256 -15.19577,2.138761 -20.60697,7.033941 -0.76501,0.692057 -1.04526,-2.524555 0.38687,-6.431504 1.45082,-3.957943 4.40568,-7.698503 6.0055,-8.239484 1.61996,-0.547796 6.16498,0.665528 9.78218,2.890072 3.56229,2.190769 5.49152,4.772328 4.43242,4.746975 z m 20.70181,8.381878 c -5.08056,-5.237535 -12.53689,-8.049627 -20.10457,-8.36239 -1.0585,-0.04375 1.03492,-2.494042 4.73245,-4.447918 3.75453,-1.983999 8.36898,-2.898442 9.94979,-2.246202 1.36454,0.563009 3.80644,3.874957 5.11044,7.549798 1.29954,3.662249 1.24167,6.989016 0.67402,7.554772 0,0 0,1e-6 0,1e-6 0,0 0,0 0,0 0,0 0,0 0,0 -10e-4,0.0013 -0.003,0.0027 -0.004,0.004 0,0 0,0 0,0 0,0 0,1e-6 0,1e-6 0,0 0,0 0,0 0,0 0,0 0,0 0,0 0,0 0,0 0,0 0,1e-6 0,1e-6 0,0 0,0 0,0 0,0 0,0 0,0 0,0 0,0 0,10e-7 0,0 0,0 0,0 0,0 0,0 0,0 -0.10366,0.09998 -0.22192,0.08832 -0.35807,-0.05204 z m 8.36961,20.675783 c -0.16429,-7.572364 -2.82962,-15.082402 -7.96651,-20.264706 -0.72623,-0.73265 2.47425,-1.159315 6.44245,0.09312 4.02,1.268785 7.89144,4.04997 8.50482,5.623442 0.62112,1.593293 -0.38364,6.188928 -2.44089,9.903826 -2.02601,3.658496 -4.51689,5.703467 -4.53987,4.644315 z m -7.42894,21.062569 c 5.00036,-5.314166 7.46944,-12.890991 7.43671,-20.465066 -0.005,-1.059394 2.53865,0.920093 4.65914,4.524653 2.15318,3.660132 3.27714,8.228078 2.69768,9.836989 -0.5,1.388278 -3.69553,3.977854 -7.30595,5.448295 -3.59844,1.465559 -6.92381,1.560417 -7.51817,1.019895 0,0 0,0 0,0 0,0 0,0 0,0 -0.002,-0.0018 -0.004,-0.0037 -0.006,-0.0055 0,0 0,-10e-7 0,-10e-7 -0.1037,-0.09883 -0.0971,-0.217227 0.0365,-0.359241 z m -20.27252,9.303931 c 7.55699,-0.509503 14.93765,-3.514595 19.88026,-8.882508 0.69876,-0.75889 1.27096,2.418801 0.20082,6.439999 -1.08411,4.073682 -3.68583,8.067945 -5.22968,8.75246 -1.56331,0.693138 -6.19999,-0.100968 -10.00485,-1.986636 -3.7471,-1.857037 -5.90355,-4.252051 -4.84655,-4.323315 z m -21.37949,-6.460529 c 5.53671,4.752772 13.21826,6.873699 20.78296,6.495545 1.05809,-0.05289 -0.80334,2.577975 -4.30744,4.860663 -3.55811,2.31788 -8.07004,3.649015 -9.7037,3.143542 -1.61335,-0.499185 -4.66451,-4.161619 -6.21779,-8.080484 -1.53326,-3.868375 -1.33678,-7.09119 -0.55403,-6.419266 z"
           inkscape:path-effect="#path-effect1091"
           inkscape:original-d="m 379.12381,26.768886 a 35.136584,35.136584 0 0 1 48.51837,1.583181 35.136584,35.136584 0 0 1 0.63143,48.540086 35.136584,35.136584 0 0 1 -48.46077,2.844732" />
      </g>
    </g>
  </g>
</svg>
